<?xml version="1.0" standalone="no"?>
<!DOCTYPE svg PUBLIC "-//W3C//DTD SVG 20010904//EN"
 "http://www.w3.org/TR/2001/REC-SVG-20010904/DTD/svg10.dtd">
<svg version="1.0" xmlns="http://www.w3.org/2000/svg"
 width="500.000000pt" height="500.000000pt" viewBox="0 0 500.000000 500.000000"
 preserveAspectRatio="xMidYMid meet">
<metadata>
Created by potrace 1.14, written by Peter Selinger 2001-2017
</metadata>
<g transform="translate(0.000000,500.000000) scale(0.100000,-0.100000)"
fill="#000000" stroke="none">
<path d="M4406 4992 c-5 -9 -14 -229 -21 -537 -6 -242 -17 -352 -43 -405 -19
-39 -20 -90 -7 -330 14 -240 5 -617 -19 -820 -3 -19 -8 -89 -12 -155 -4 -66
-8 -133 -9 -150 -2 -16 -8 -97 -14 -180 -6 -82 -13 -172 -16 -200 -2 -27 -9
-104 -15 -170 -6 -66 -13 -125 -15 -132 -2 -7 -7 -45 -10 -85 -3 -40 -8 -82
-10 -93 -2 -11 -7 -93 -11 -183 -3 -89 -12 -191 -20 -225 -8 -34 -17 -78 -20
-97 -3 -19 -10 -42 -14 -50 -16 -31 -20 -129 -9 -220 19 -166 22 -261 11 -344
-9 -67 -19 -167 -36 -371 -2 -28 -60 -23 -128 11 -83 42 -105 61 -139 122 -18
31 -53 84 -78 117 -40 52 -46 57 -49 37 -2 -12 3 -46 12 -75 28 -98 46 -229
46 -343 l0 -114 611 0 612 0 -5 118 c-8 168 -36 209 -159 232 -30 6 -77 17
-105 25 -48 14 -52 18 -62 56 -17 67 3 105 77 149 117 69 144 99 162 176 9 41
7 66 -11 154 -11 58 -24 136 -27 173 -5 61 -4 70 18 93 25 26 74 54 96 54 11
0 13 312 13 1885 l0 1885 -294 0 c-162 0 -297 -3 -300 -8z"/>
<path d="M2120 4880 c-11 -7 -12 -12 -4 -20 8 -8 14 -7 23 4 14 17 1 28 -19
16z"/>
<path d="M2310 4884 c0 -10 28 -34 39 -34 14 0 14 13 -1 28 -12 12 -38 17 -38
6z"/>
<path d="M2075 4870 c-3 -5 -1 -10 4 -10 6 0 11 5 11 10 0 6 -2 10 -4 10 -3 0
-8 -4 -11 -10z"/>
<path d="M2398 4858 c31 -15 27 -28 -9 -28 -17 0 -39 -5 -49 -10 -15 -8 -23
-6 -39 11 -22 24 -45 17 -36 -12 5 -15 1 -19 -21 -19 -22 0 -24 -3 -15 -14 10
-11 8 -15 -6 -18 -10 -2 -22 5 -28 16 -5 10 -18 24 -28 30 -15 9 -22 7 -38
-13 -10 -13 -25 -21 -33 -18 -7 3 -18 1 -23 -4 -6 -6 -16 -2 -27 10 -19 21
-46 18 -46 -5 0 -8 -10 -14 -22 -14 -13 0 -33 -3 -45 -6 -18 -5 -21 -3 -16 15
4 15 1 21 -11 21 -9 0 -16 -8 -16 -18 0 -10 -6 -27 -14 -37 -12 -17 -15 -17
-35 -3 -19 13 -20 17 -6 28 16 13 11 35 -6 24 -5 -3 -16 -1 -23 5 -11 9 -15 5
-19 -21 -2 -18 0 -36 5 -39 7 -4 6 -9 0 -13 -6 -3 -13 -2 -17 4 -4 6 -11 8
-16 5 -13 -9 -11 19 3 33 9 9 9 12 1 12 -7 0 -15 -5 -18 -10 -4 -6 -10 -8 -15
-5 -5 3 -28 -3 -51 -14 -23 -11 -45 -18 -50 -16 -11 8 -59 -15 -104 -50 -21
-16 -41 -29 -42 -27 -2 1 -19 -9 -39 -24 -19 -15 -37 -24 -41 -20 -3 3 -12 -3
-20 -14 -8 -11 -19 -20 -25 -20 -6 0 -32 -23 -59 -51 -26 -28 -53 -48 -58 -45
-5 4 -17 -9 -26 -28 -9 -19 -23 -40 -31 -47 -8 -6 -14 -20 -14 -30 0 -12 -10
-23 -25 -29 -29 -11 -34 -48 -7 -56 9 -3 24 -8 32 -10 9 -3 11 -8 4 -12 -18
-13 -56 -73 -50 -79 4 -4 12 -1 18 5 8 8 15 8 24 1 17 -14 35 -3 27 16 -5 15
25 71 34 62 2 -3 -2 -18 -10 -34 -8 -15 -12 -33 -10 -39 2 -6 -4 -17 -13 -25
-13 -11 -18 -11 -21 -1 -8 23 -23 12 -23 -17 0 -29 1 -29 32 -20 18 5 36 9 40
9 16 0 -4 -27 -32 -44 -32 -18 -39 -36 -15 -36 8 0 15 -4 15 -10 0 -5 -4 -10
-8 -10 -4 0 -14 -15 -21 -32 -13 -31 -14 -31 -18 -10 -3 13 1 29 7 37 12 15 6
35 -11 35 -10 0 -53 -67 -54 -85 -2 -31 -19 -75 -36 -91 -10 -9 -19 -24 -19
-32 0 -11 9 -7 30 13 33 32 41 21 10 -15 -11 -12 -17 -26 -14 -31 2 -5 -2 -19
-11 -33 -9 -13 -15 -28 -14 -32 1 -5 0 -16 -4 -24 -3 -8 -8 -26 -11 -40 -3
-14 -17 -38 -31 -55 -18 -21 -23 -24 -18 -10 3 11 10 26 16 33 12 16 37 132
28 132 -13 0 -31 -65 -25 -87 5 -17 2 -23 -9 -23 -16 0 -58 -114 -62 -170 -3
-35 -5 -38 -14 -15 -8 19 -9 18 -21 -7 -17 -35 -33 -37 -20 -2 18 47 9 49 -15
4 -26 -49 -30 -65 -15 -55 16 10 12 -5 -10 -32 -14 -18 -20 -41 -20 -73 0 -30
-6 -52 -15 -60 -18 -15 -20 -37 -3 -42 6 -2 12 -27 13 -56 1 -28 -2 -49 -7
-46 -10 6 -11 -10 -1 -20 5 -4 9 -56 9 -114 2 -159 13 -253 35 -295 10 -21 19
-46 19 -56 0 -11 8 -33 17 -50 23 -39 13 -47 -37 -27 -60 24 -95 21 -120 -11
-24 -31 -23 -60 4 -128 8 -22 15 -65 16 -96 0 -31 9 -87 21 -123 50 -162 261
-521 382 -649 27 -29 42 -37 70 -37 20 0 39 5 42 10 9 14 61 12 73 -3 5 -6 33
-63 60 -125 54 -121 76 -220 87 -397 11 -169 27 -290 45 -341 19 -53 53 -118
74 -144 7 -8 16 -23 19 -33 4 -10 11 -16 16 -12 5 3 12 -4 16 -15 3 -11 11
-20 16 -20 17 0 63 -62 64 -84 0 -17 6 -21 30 -21 34 -1 87 -26 67 -33 -10 -3
-10 -7 -1 -18 8 -10 15 -11 24 -4 8 7 12 6 13 -3 0 -6 4 -22 7 -34 6 -18 2
-23 -19 -29 -14 -3 -31 -13 -38 -22 -11 -13 -9 -15 17 -9 17 3 24 4 18 1 -7
-3 -13 -12 -13 -19 0 -20 -23 -24 -37 -6 -11 15 -12 14 -13 -1 0 -9 -5 -20
-12 -24 -6 -4 -8 -3 -4 4 11 19 -16 62 -39 62 -12 0 -30 9 -40 20 -10 11 -22
20 -27 20 -6 0 -18 10 -28 23 l-19 22 4 -40 c4 -32 3 -35 -4 -15 -5 14 -10 21
-10 15 -1 -5 -6 -2 -12 8 -16 27 -24 20 -26 -24 -2 -33 0 -40 12 -35 22 8 19
-21 -3 -33 -22 -12 -62 -4 -62 13 0 6 -5 4 -10 -4 -5 -8 -10 -12 -11 -7 -3 15
-6 23 -32 80 -31 67 -35 145 -13 236 24 98 28 141 12 141 -35 0 -136 -153
-162 -247 -16 -60 -20 -64 -136 -165 -66 -57 -130 -109 -143 -116 -19 -10
-144 -57 -275 -105 -8 -3 180 -6 418 -6 238 -1 431 3 428 7 -2 4 -1 14 4 22 6
10 4 20 -6 31 -13 15 -13 17 1 22 8 4 15 16 15 27 0 16 4 20 19 15 13 -4 20 0
24 15 6 25 37 27 37 3 0 -15 2 -16 10 -3 5 8 12 11 16 7 4 -3 2 -13 -5 -21 -9
-11 -8 -15 5 -20 10 -4 21 -2 24 5 6 8 21 8 61 0 37 -8 55 -9 57 -1 2 5 8 10
13 10 4 0 6 -7 3 -15 -9 -23 14 -18 26 6 10 17 8 21 -9 26 -26 7 -28 33 -2 33
11 0 22 10 26 23 6 19 8 19 12 5 7 -27 26 -22 21 5 -4 23 -4 23 24 9 16 -8 32
-11 35 -8 3 3 -7 11 -23 17 -16 6 -24 13 -18 15 6 3 47 -16 91 -41 45 -25 83
-45 87 -45 3 0 73 -34 157 -75 137 -68 209 -91 209 -65 0 5 -8 14 -17 19 -14
8 -10 9 17 4 19 -3 43 -13 53 -21 9 -8 17 -10 17 -4 0 16 59 26 76 12 11 -10
30 -10 88 0 73 12 102 8 90 -11 -4 -7 7 -9 27 -7 20 2 33 8 32 15 -2 7 8 20
22 29 29 19 32 31 8 36 -12 2 -18 14 -19 39 -2 32 0 36 17 32 22 -6 28 22 7
31 -7 3 -2 3 12 0 14 -3 41 2 60 11 l35 16 -58 -5 c-41 -3 -61 -1 -71 10 -8 8
-19 14 -25 14 -6 0 -11 7 -11 15 0 10 10 15 30 15 17 0 30 -4 30 -10 0 -13 37
-13 42 1 2 7 13 6 33 -2 33 -14 96 -18 88 -7 -2 5 -14 8 -26 8 -56 1 -55 27 1
36 40 7 52 12 52 24 0 5 -9 10 -19 10 -32 0 -34 18 -4 32 16 8 27 21 25 29 -1
9 9 21 23 27 14 6 25 16 25 22 0 5 5 10 11 10 8 0 8 -5 -1 -15 -7 -9 -10 -25
-5 -42 12 -48 50 -58 65 -17 6 14 14 23 19 20 5 -4 20 11 32 31 13 21 29 42
36 46 7 4 13 20 13 35 0 16 13 43 31 65 31 37 32 38 51 20 20 -18 20 -17 14
13 -5 23 -1 43 19 79 14 26 25 56 25 65 0 10 7 20 15 24 8 3 15 17 15 32 0 14
11 39 24 54 16 19 22 37 19 54 -5 25 -5 25 -26 5 -11 -10 -25 -19 -30 -19 -6
0 5 12 24 27 46 36 106 113 186 236 110 169 163 312 163 441 0 63 -11 53 -16
-15 -2 -29 -9 -58 -15 -63 -9 -8 -10 -3 -6 21 4 20 2 35 -5 39 -8 5 -9 2 -5
-9 3 -10 2 -17 -4 -17 -6 0 -8 -9 -4 -22 6 -17 4 -20 -10 -14 -9 3 -21 4 -26
1 -10 -7 10 -55 23 -55 4 0 8 -5 8 -11 0 -6 -8 -9 -19 -6 -14 3 -21 -4 -31
-32 -7 -23 -23 -43 -42 -54 -30 -17 -30 -18 -12 -32 18 -14 18 -14 -3 -15 -19
0 -21 -4 -16 -34 3 -19 1 -36 -5 -40 -6 -4 -9 -13 -5 -21 3 -8 1 -15 -5 -15
-5 0 -13 7 -16 16 -4 9 -9 14 -13 11 -3 -4 0 -13 7 -22 7 -9 10 -19 6 -23 -4
-4 -13 1 -21 11 -11 15 -14 15 -25 2 -10 -12 -10 -15 1 -16 8 0 4 -4 -9 -9
-12 -5 -28 -7 -35 -5 -19 7 -59 -33 -59 -59 0 -26 -33 -42 -53 -26 -13 11 -40
-44 -31 -65 3 -8 0 -15 -7 -16 -43 -2 -82 -11 -85 -18 -2 -5 -12 -7 -22 -4
-11 3 -20 0 -20 -6 0 -6 -7 -11 -15 -11 -12 0 -19 -20 -17 -50 1 -11 -94 -4
-115 8 -13 7 -23 9 -23 3 0 -5 8 -12 18 -16 14 -6 12 -9 -13 -16 -26 -8 -34
-5 -61 24 -35 36 -88 81 -92 78 -1 -1 -18 1 -38 5 -40 7 -52 1 -35 -20 9 -11
8 -17 -3 -29 -10 -10 -11 -18 -4 -25 6 -6 6 -12 -1 -16 -6 -4 -11 -21 -11 -37
0 -20 -4 -29 -12 -26 -7 2 -12 12 -12 21 1 9 -2 16 -7 16 -5 0 -9 -4 -9 -8 0
-5 -13 -9 -30 -9 -17 0 -30 6 -30 13 0 17 -32 27 -40 13 -6 -8 -9 -8 -15 0 -5
9 -10 9 -21 0 -12 -10 -13 -9 -8 4 4 12 -2 18 -20 23 -14 3 -23 10 -20 15 3 5
11 6 17 2 6 -4 20 -8 30 -8 10 -1 22 -7 26 -14 6 -9 11 -9 20 2 9 11 8 17 -4
27 -9 7 -13 20 -10 29 8 25 -27 72 -45 61 -21 -13 -26 -12 -45 6 -19 19 -35 9
-38 -25 -1 -11 -4 -21 -8 -21 -3 0 -6 -13 -5 -29 1 -16 4 -27 9 -24 4 2 7 1 8
-4 0 -4 2 -18 3 -31 2 -13 -1 -25 -6 -28 -4 -3 -8 2 -8 10 0 24 -36 55 -57 50
-11 -3 -26 3 -37 15 -11 12 -25 21 -33 21 -7 0 -13 5 -13 10 0 6 5 10 11 10 6
0 9 6 6 14 -6 16 22 46 44 46 22 0 38 20 31 38 -3 10 3 7 16 -6 12 -12 22 -30
22 -39 0 -28 13 -5 19 34 6 34 10 38 45 45 22 5 44 12 50 17 6 5 31 13 56 19
25 5 79 19 120 31 41 11 86 21 98 21 13 0 35 9 49 20 14 11 33 20 42 20 9 0
33 16 53 36 33 31 36 38 26 59 -8 18 -15 22 -27 16 -95 -48 -112 -53 -127 -40
-12 10 -12 14 -2 20 9 6 8 9 -6 9 -15 0 -16 3 -6 15 15 18 -1 20 -18 3 -9 -9
-15 -9 -24 0 -14 14 -42 16 -33 3 9 -16 -12 -22 -39 -11 -21 7 -26 6 -26 -5 0
-8 -6 -12 -14 -9 -21 8 -28 -12 -11 -29 21 -22 19 -24 -15 -19 -22 3 -32 11
-36 28 -5 19 -9 22 -19 14 -10 -8 -15 -8 -20 0 -4 6 -14 10 -23 9 -14 -2 -81
24 -102 39 -3 2 3 10 14 17 10 8 15 19 11 24 -7 13 6 19 50 25 54 6 65 15 59
46 -6 26 -4 28 36 35 26 4 46 3 52 -3 13 -13 65 -4 93 15 11 7 27 13 37 13 10
0 18 4 18 10 0 5 16 9 36 8 34 -1 35 -2 17 -20 -10 -10 -52 -27 -93 -39 -77
-21 -153 -60 -132 -67 7 -2 26 4 43 12 18 9 40 16 51 16 10 0 18 5 18 11 0 7
10 9 25 7 14 -3 25 -1 25 4 0 5 5 6 10 3 6 -3 10 -2 10 4 0 6 17 13 38 17 20
4 42 10 47 14 6 4 24 11 42 14 27 6 34 3 48 -18 16 -24 40 -27 32 -3 -1 5 7
21 20 35 12 13 28 37 35 53 7 16 18 29 24 29 7 0 14 8 18 18 6 18 27 53 37 62
5 5 7 50 2 50 -2 0 -11 -13 -21 -30 -17 -28 -19 -28 -46 -15 -72 38 -206 59
-206 34 0 -7 -11 -9 -29 -6 -23 5 -30 2 -34 -13 -5 -21 -37 -28 -37 -9 0 14
-68 3 -88 -14 -8 -6 -56 -10 -120 -9 -109 1 -193 -15 -239 -45 -16 -11 -30
-12 -49 -6 -24 8 -26 11 -12 23 8 8 13 22 10 32 -3 13 1 18 14 16 24 -2 84 21
84 33 0 5 11 9 24 9 16 0 27 7 31 21 5 15 10 18 15 10 5 -9 12 -8 24 5 12 12
14 20 7 27 -14 14 -14 30 -1 22 6 -3 10 -2 10 3 0 5 10 12 22 16 22 5 22 6 3
20 -19 14 -19 15 8 25 38 15 39 14 32 -9 -3 -11 -2 -20 4 -20 15 0 24 41 12
53 -15 15 -14 27 4 27 9 0 15 -9 15 -21 0 -12 11 -30 25 -41 19 -14 23 -26 19
-43 -4 -17 0 -26 14 -34 17 -9 22 -8 27 10 4 12 12 18 21 15 20 -8 17 21 -3
33 -17 9 -17 10 0 16 20 8 23 25 3 25 -17 0 -27 25 -19 46 4 10 0 22 -10 29
-27 19 20 57 75 60 24 2 51 3 60 4 20 1 78 60 78 79 0 6 -9 12 -19 12 -11 0
-23 5 -26 10 -7 11 -46 4 -55 -10 -11 -16 -49 -30 -55 -20 -9 14 -35 12 -69
-5 -29 -15 -30 -15 -66 20 -20 20 -41 35 -46 34 -5 -1 -25 5 -45 14 -38 17
-63 58 -54 87 4 11 -1 20 -12 25 -17 6 -17 7 -2 19 21 15 42 87 30 99 -5 5 -7
25 -4 45 4 23 3 33 -4 29 -13 -8 -23 14 -23 48 0 13 -11 37 -25 53 -15 18 -28
49 -31 74 -4 23 -8 45 -10 47 -2 2 0 9 6 16 12 15 23 77 24 140 1 28 5 56 9
63 5 7 4 19 -3 27 -7 8 -14 27 -16 42 -7 54 -11 70 -31 121 -4 9 -7 24 -8 32
-5 53 -19 120 -26 120 -8 0 -6 -62 7 -211 5 -63 3 -82 -11 -103 -22 -33 -43
-33 -83 0 -24 20 -29 30 -21 40 7 9 5 14 -11 19 -26 8 -40 -3 -20 -15 11 -7 2
-10 -30 -12 -76 -3 -102 0 -111 14 -7 11 -12 11 -30 0 -12 -8 -39 -20 -59 -27
-36 -13 -38 -12 -44 8 -5 20 -6 20 -30 -6 -14 -15 -33 -27 -43 -27 -13 0 -14
3 -6 8 9 5 1 12 -23 21 -20 7 -39 9 -43 5 -8 -12 -79 -16 -86 -5 -3 5 -29 7
-58 5 -68 -6 -83 4 -69 45 9 27 9 31 -6 32 -12 0 -10 3 7 10 13 5 32 7 42 4
21 -7 25 5 7 23 -18 18 4 15 31 -4 23 -16 23 -16 15 7 -4 13 -7 32 -6 42 0 9
-6 17 -15 17 -9 0 -13 6 -9 15 5 15 2 20 -47 56 -16 12 -26 27 -23 35 3 8 1
14 -4 14 -6 0 -6 9 -1 23 5 12 5 31 2 42 -14 39 -8 50 24 47 26 -4 28 -2 16
12 -14 17 -46 22 -54 9 -2 -5 -2 -2 0 5 1 7 -8 25 -22 40 -14 15 -25 30 -25
34 0 12 18 9 26 -3 4 -8 9 -7 15 2 14 22 11 27 -16 21 -19 -3 -25 0 -25 12 0
9 6 16 13 15 44 -5 73 3 83 24 13 30 -10 56 -59 64 -29 4 -36 2 -40 -13 -2
-11 -2 -8 0 6 3 14 5 35 6 47 1 11 5 19 10 16 4 -2 7 9 7 25 0 33 -27 52 -42
30 -7 -9 -8 -4 -5 15 3 20 -1 31 -15 38 -22 12 -47 1 -27 -12 11 -7 11 -9 -2
-9 -9 0 -22 7 -29 15 -7 8 -8 15 -3 15 8 0 33 56 33 74 0 5 -9 6 -20 3 -11 -3
-20 -1 -20 4 0 5 5 9 10 9 6 0 10 9 10 20 0 11 -4 20 -10 20 -5 0 -10 -4 -10
-10 0 -5 -5 -10 -11 -10 -7 0 -8 7 -4 18 4 9 9 28 12 42 3 21 1 20 -16 -10
-11 -19 -20 -43 -21 -52 0 -10 -7 -18 -15 -18 -19 0 -19 1 0 48 9 22 15 43 14
48 -1 5 1 17 6 27 4 10 5 21 1 24 -3 4 -6 -1 -6 -10 0 -9 -7 -17 -15 -17 -8 0
-15 9 -15 19 0 11 -4 22 -9 25 -11 7 -23 -22 -16 -35 4 -5 -1 -6 -9 -3 -27 10
-17 -10 14 -32 27 -18 29 -23 16 -34 -13 -10 -17 -8 -27 14 -16 35 -31 22 -23
-21 5 -26 4 -34 -5 -29 -6 4 -11 26 -11 49 0 23 -4 56 -8 72 -5 17 -5 41 -1
55 6 20 7 17 8 -18 1 -48 24 -55 29 -9 2 16 8 24 16 21 8 -3 16 2 19 10 10 26
28 19 21 -8 -5 -20 -1 -24 23 -29 15 -3 33 -1 38 4 7 7 4 8 -7 4 -22 -9 -22 2
-3 49 19 44 28 48 13 5 -6 -16 -7 -33 -4 -37 4 -3 9 4 13 17 4 16 11 21 24 18
11 -3 17 -2 14 3 -3 4 2 11 11 14 22 9 24 8 24 -10 0 -8 -4 -13 -9 -10 -5 3
-11 -1 -15 -9 -3 -8 -1 -17 5 -20 5 -4 6 -12 2 -18 -4 -6 -8 -19 -8 -29 -1
-13 2 -15 17 -7 10 5 18 18 18 29 0 14 5 18 16 13 10 -4 15 -1 14 8 -5 36 3
41 15 9 13 -33 14 -30 9 53 -4 63 -2 87 6 87 7 0 10 -6 7 -14 -3 -8 3 -26 15
-41 11 -14 18 -29 14 -32 -3 -4 -6 -1 -6 5 0 7 -7 12 -15 12 -8 0 -15 -7 -15
-15 0 -8 5 -15 11 -15 6 0 9 -9 6 -20 -3 -12 0 -20 8 -20 7 0 12 -8 11 -17 -1
-12 6 -18 19 -18 14 0 20 7 20 23 0 13 9 28 19 34 18 10 18 7 14 -41 -3 -28
-2 -51 2 -51 4 0 12 -12 18 -26 7 -14 17 -22 22 -19 7 4 7 12 0 25 -12 23 -13
70 -2 70 12 0 42 -34 42 -46 0 -5 -5 -1 -11 9 -6 9 -14 15 -19 12 -11 -6 27
-85 41 -85 4 0 11 23 15 50 6 46 24 81 24 47 0 -8 7 -18 16 -21 23 -9 36 -7
29 4 -3 5 -3 21 1 35 5 19 9 23 15 14 6 -10 10 -10 23 0 13 11 16 11 16 -3 0
-9 -3 -15 -7 -15 -20 3 -23 -2 -9 -16 17 -18 30 -20 20 -4 -3 6 -2 14 4 18 6
4 9 17 5 29 -4 17 -10 21 -25 16 -16 -5 -18 -3 -12 7 10 17 13 37 18 112 2 33
9 64 15 70 9 9 11 8 6 -5 -4 -9 -2 -26 5 -37 8 -16 6 -30 -10 -67 -12 -25 -19
-49 -15 -52 8 -8 25 19 19 29 -7 12 17 22 27 12 6 -6 1 -17 -11 -30 -17 -19
-18 -25 -6 -47 7 -14 17 -22 22 -18 5 4 0 -3 -10 -15 -11 -13 -14 -23 -8 -23
6 0 13 4 16 9 11 16 46 20 46 4 0 -8 -3 -12 -8 -9 -14 9 -39 -20 -47 -53 -9
-41 7 -35 25 9 7 16 17 30 22 30 7 0 7 -4 1 -12 -6 -7 -13 -30 -16 -51 -5 -34
-4 -36 13 -27 10 5 21 19 25 29 6 21 35 37 35 19 0 -6 2 -9 5 -6 10 9 -7 38
-21 38 -9 0 -3 12 16 31 19 20 30 42 29 58 -1 25 -1 25 -15 -6 -8 -18 -15 -33
-17 -33 -3 0 -1 69 2 93 1 4 6 7 13 7 9 0 9 -3 0 -12 -25 -25 -10 -28 21 -4
38 29 64 35 32 8 -11 -9 -21 -30 -23 -46 -1 -16 -8 -39 -16 -51 -11 -17 -11
-24 -1 -39 7 -9 16 -13 19 -7 3 5 0 11 -6 14 -10 3 -10 8 -2 17 8 8 14 9 18 1
11 -17 27 -13 24 7 -2 9 3 16 10 14 6 -1 11 1 10 5 -2 5 7 18 20 31 12 12 22
19 22 15 0 -4 5 -2 12 5 28 28 27 9 -2 -25 -24 -30 -27 -39 -15 -41 8 -2 15
-10 15 -18 0 -8 5 -12 10 -9 6 3 10 19 10 34 0 22 9 34 41 56 41 27 43 19 6
-22 -24 -26 -12 -30 21 -7 12 8 20 20 16 25 -3 6 2 17 12 25 17 12 17 13 2 8
-22 -7 -24 11 -3 20 19 7 20 46 0 46 -9 0 -12 6 -9 15 5 11 2 13 -10 9 -20 -8
-21 9 -2 25 11 10 16 8 24 -6 6 -10 14 -15 18 -10 7 7 -23 47 -36 47 -4 0 -13
-11 -20 -25 -10 -19 -10 -28 -1 -38 9 -12 8 -16 -4 -21 -10 -4 -15 1 -15 14 0
10 -5 22 -10 25 -6 4 -8 21 -4 40 3 18 1 35 -4 39 -6 3 -8 15 -5 26 3 11 0 20
-6 20 -6 0 -11 7 -11 16 0 8 5 12 11 8 8 -5 8 -1 0 14 -17 31 -13 37 10 16 11
-10 18 -26 16 -36 -3 -10 -1 -21 4 -24 5 -3 5 -13 -1 -25 -9 -16 -7 -19 9 -19
11 0 22 -6 25 -12 3 -7 3 -2 0 10 -3 13 -7 48 -8 77 -2 46 0 52 13 45 17 -9
45 12 33 26 -4 4 -2 4 5 0 8 -4 9 -14 4 -29 -5 -12 -5 -34 0 -50 4 -15 6 -36
3 -45 -2 -9 1 -6 7 8 6 14 17 37 25 52 8 14 14 33 14 42 0 9 4 16 9 16 14 0
20 -38 7 -44 -6 -2 -3 -5 7 -5 9 -1 17 6 17 14 0 8 5 15 10 15 6 0 19 9 30 20
15 15 20 16 20 6 0 -8 -4 -18 -10 -21 -5 -3 -10 -15 -10 -26 0 -11 4 -18 8
-15 4 2 14 -5 21 -16 11 -17 11 -20 -1 -16 -9 4 -13 -3 -13 -21 1 -42 15 -73
31 -67 11 4 12 2 4 -14 -14 -26 -13 -30 8 -23 13 5 11 -1 -8 -23 -14 -16 -28
-30 -32 -32 -5 -2 -8 -8 -8 -14 0 -6 11 -3 24 6 14 9 32 13 40 10 9 -3 16 -1
16 5 0 6 11 16 24 22 13 6 27 21 31 33 6 17 8 14 15 -19 4 -22 6 -44 3 -48 -3
-5 5 -4 18 3 l24 11 -23 -20 c-16 -14 -21 -25 -15 -35 7 -12 14 -10 40 13 18
16 30 30 28 33 -3 2 6 15 20 28 14 13 25 31 25 40 0 9 12 27 26 39 18 16 23
26 16 33 -6 6 -7 20 -3 32 9 25 -5 86 -20 86 -6 0 -7 5 -3 12 5 8 10 7 18 -4
15 -21 86 -41 86 -25 0 7 4 6 10 -3 5 -8 10 -22 10 -30 0 -13 -1 -13 -11 0 -7
10 -9 11 -7 2 2 -8 8 -14 13 -14 6 0 23 -11 38 -24 32 -27 43 -29 53 -12 6 9
10 5 14 -11 4 -16 13 -25 28 -26 12 -1 32 -11 43 -23 17 -19 39 -29 39 -18 0
19 -61 106 -74 106 -6 0 -20 10 -30 22 -15 17 -16 20 -2 15 45 -19 48 -16 18
12 -25 24 -38 30 -57 25 -25 -6 -35 9 -15 21 5 3 7 12 3 20 -3 8 0 15 7 15 10
0 10 3 0 15 -7 8 -18 15 -25 15 -16 0 -55 34 -55 49 0 9 -5 9 -22 0 -18 -10
-20 -9 -15 4 4 12 -13 27 -64 56 -39 23 -75 41 -81 41 -5 0 -22 6 -36 13 -68
35 -100 47 -132 53 -19 3 -45 11 -58 17 -17 8 -25 8 -34 -1 -16 -16 -28 -15
-28 3 0 8 -6 15 -14 15 -8 0 -27 5 -43 12 -15 6 -39 13 -53 14 -25 2 -25 2 -2
-8z m-38 -58 c0 -5 -4 -10 -10 -10 -5 0 -10 5 -10 10 0 6 5 10 10 10 6 0 10
-4 10 -10z m-370 -60 c0 -5 -7 -10 -16 -10 -8 0 -12 5 -9 10 3 6 10 10 16 10
5 0 9 -4 9 -10z m197 -28 c1 -28 -1 -32 -7 -17 -11 26 -12 55 -2 55 4 0 8 -17
9 -38z m191 10 c2 -7 -3 -12 -11 -12 -15 0 -29 -29 -31 -63 -1 -10 -7 -21 -15
-26 -10 -7 -11 -13 -2 -30 7 -11 16 -21 21 -21 6 0 10 -4 10 -10 0 -5 -7 -7
-15 -4 -9 4 -15 0 -15 -10 0 -9 -4 -16 -10 -16 -5 0 -10 7 -10 15 0 8 5 15 11
15 8 0 9 4 0 13 -6 8 -7 17 -3 22 4 4 0 5 -8 3 -8 -3 -14 -11 -12 -17 3 -14
-15 -15 -23 -1 -4 6 5 20 20 31 20 17 23 24 14 35 -6 8 -8 25 -5 39 4 17 2 25
-6 25 -7 0 -5 5 5 11 10 6 25 8 32 5 8 -3 17 -1 21 5 7 12 26 7 32 -9z m-128
-17 c9 -10 9 -15 1 -15 -6 0 -11 4 -11 10 0 5 -7 7 -15 4 -8 -4 -15 -1 -15 5
0 16 25 13 40 -4z m206 -2 c9 -12 13 -14 14 -5 0 7 5 10 10 7 6 -4 0 -20 -15
-39 -14 -18 -22 -36 -18 -39 3 -4 1 -7 -6 -7 -8 0 -10 8 -7 20 3 11 9 30 12
42 5 16 3 20 -10 15 -16 -6 -22 4 -9 16 10 10 15 9 29 -10z m119 -3 c3 -5 -1
-10 -9 -10 -9 0 -16 5 -16 10 0 6 4 10 9 10 6 0 13 -4 16 -10z m-995 -10 c0
-5 -5 -10 -11 -10 -5 0 -7 5 -4 10 3 6 8 10 11 10 2 0 4 -4 4 -10z m805 0 c3
-5 2 -10 -4 -10 -5 0 -13 5 -16 10 -3 6 -2 10 4 10 5 0 13 -4 16 -10z m-215
-4 c0 -3 -4 -16 -10 -30 -7 -19 -6 -26 2 -26 17 0 -2 -17 -43 -39 -26 -14 -35
-26 -37 -50 -2 -23 -7 -31 -18 -27 -18 7 -18 -17 1 -54 8 -16 12 -36 9 -44
-10 -26 4 -18 20 12 10 17 15 21 16 11 0 -9 -9 -27 -20 -40 -11 -14 -19 -18
-20 -11 0 7 -4 10 -10 7 -6 -4 -6 3 0 21 10 25 9 26 -6 13 -16 -13 -17 -11
-11 20 6 29 5 32 -8 21 -9 -7 -19 -10 -23 -6 -4 4 1 12 10 17 10 5 15 16 12
23 -3 7 2 16 10 19 9 4 16 11 16 18 0 26 42 69 67 69 25 0 25 1 10 18 -15 16
-15 20 -1 40 13 19 34 30 34 18z m237 -34 c-20 -22 -22 -38 -4 -46 8 -3 7 -8
-6 -16 -18 -11 -18 -13 3 -35 14 -15 18 -25 11 -30 -17 -10 -29 2 -50 48 -19
41 -19 42 1 57 11 8 28 22 37 31 22 21 28 14 8 -9z m193 7 c0 -5 -4 -9 -10 -9
-5 0 -10 7 -10 16 0 8 5 12 10 9 6 -3 10 -10 10 -16z m-415 -10 c-5 -15 -4
-19 4 -15 7 4 11 -1 11 -13 0 -15 5 -19 18 -14 14 5 15 4 4 -8 -7 -7 -27 -14
-44 -15 -29 -2 -31 -1 -14 11 12 9 16 20 11 34 -3 12 -3 25 0 31 11 18 17 11
10 -11z m339 -4 c-4 -9 0 -15 10 -15 9 0 16 -7 16 -15 0 -9 -6 -12 -16 -8 -14
5 -15 3 -6 -13 9 -16 7 -20 -8 -20 -10 0 -16 6 -13 13 3 8 -3 13 -18 13 -21 1
-22 2 -8 13 8 7 18 20 22 30 3 9 11 17 16 17 6 0 8 -7 5 -15z m-449 -25 c-10
-11 -23 -20 -28 -20 -13 0 24 39 37 39 5 1 1 -8 -9 -19z m205 11 c0 -5 -7 -12
-16 -15 -24 -9 -28 -7 -14 9 14 17 30 20 30 6z m467 -38 c-4 -3 -2 -12 4 -20
9 -9 8 -13 0 -13 -6 0 -11 2 -11 4 0 2 -3 11 -6 20 -4 10 -1 16 7 16 7 0 9 -3
6 -7z m-897 -23 c0 -5 -7 -10 -16 -10 -8 0 -12 5 -9 10 3 6 10 10 16 10 5 0 9
-4 9 -10z m76 -15 c-1 -29 -16 -35 -16 -7 0 16 8 32 16 32 1 0 1 -11 0 -25z
m274 -18 c0 -5 -4 -5 -10 -2 -5 3 -10 14 -10 23 0 15 2 15 10 2 5 -8 10 -19
10 -23z m270 -2 c0 -5 -5 -3 -10 5 -5 8 -10 20 -10 25 0 6 5 3 10 -5 5 -8 10
-19 10 -25z m550 9 c0 -12 -2 -12 -14 -2 -8 7 -12 16 -9 21 7 11 23 -2 23 -19z
m-1010 -14 c0 -5 -7 -7 -15 -4 -8 4 -15 1 -15 -7 0 -7 -3 -9 -6 -6 -9 9 16 38
27 31 5 -3 9 -9 9 -14z m120 10 c0 -5 -4 -10 -10 -10 -5 0 -10 5 -10 10 0 6 5
10 10 10 6 0 10 -4 10 -10z m650 6 c0 -11 -19 -15 -25 -6 -3 5 1 10 9 10 9 0
16 -2 16 -4z m-518 -31 c3 -14 1 -28 -3 -31 -5 -3 -9 0 -9 6 0 7 -6 10 -12 7
-7 -2 -13 -12 -13 -22 0 -10 -6 -20 -13 -23 -18 -6 -15 19 8 56 24 39 36 41
42 7z m286 13 c16 -16 15 -29 -2 -22 -16 6 -30 34 -18 34 5 0 13 -5 20 -12z
m-408 -32 c0 -13 -6 -26 -13 -29 -15 -5 -16 20 -3 41 11 18 16 15 16 -12z
m568 3 c3 -12 2 -12 -6 0 -8 11 -10 11 -14 0 -3 -8 -9 -11 -13 -7 -10 9 4 30
18 25 6 -2 12 -10 15 -18z m97 -1 c8 -18 18 -23 43 -22 27 2 32 -1 32 -21 0
-13 -4 -27 -10 -30 -5 -3 -10 -17 -10 -31 0 -15 -4 -23 -11 -19 -6 4 -8 13 -5
21 3 8 1 14 -4 14 -5 0 -10 -8 -12 -17 -2 -14 -7 -12 -21 10 -20 31 -14 55 9
36 17 -14 18 -5 4 22 -6 11 -20 18 -33 18 -17 -1 -18 -2 -4 -6 9 -2 17 -8 17
-13 0 -18 -20 -20 -45 -4 -24 16 -27 16 -45 -1 -10 -9 -23 -14 -29 -11 -5 3
-11 0 -13 -8 -2 -12 -8 -11 -28 5 l-25 21 28 -6 c16 -4 27 -2 27 4 0 6 4 8 10
5 5 -3 20 0 32 7 13 7 26 11 29 11 4 -1 15 6 25 17 25 24 27 24 39 -2z m45 7
c0 -8 -4 -15 -10 -15 -5 0 -10 7 -10 15 0 8 5 15 10 15 6 0 10 -7 10 -15z
m-973 -25 c-17 -28 -27 -25 -14 4 7 13 15 22 19 20 4 -3 2 -14 -5 -24z m753 5
c-7 -9 -15 -13 -18 -10 -3 2 1 11 8 20 7 9 15 13 18 10 3 -2 -1 -11 -8 -20z
m-391 -56 c-10 -20 -9 -25 10 -37 11 -8 21 -21 21 -29 0 -10 7 -14 20 -10 11
3 18 2 17 -1 -2 -4 -7 -16 -12 -27 -7 -19 -7 -19 -14 -1 -6 16 -11 11 -29 -27
-25 -53 -31 -59 -24 -22 2 15 0 25 -7 25 -6 0 -11 -6 -11 -12 -1 -7 -10 -2
-20 11 -16 18 -18 27 -9 38 7 7 9 17 5 20 -4 4 -11 1 -16 -7 -11 -17 -13 -9
-4 14 11 28 35 -1 27 -33 -6 -24 -5 -25 11 -12 10 8 15 23 13 33 -3 10 -1 20
4 23 4 3 5 13 2 21 -5 15 16 68 24 60 3 -2 -1 -15 -8 -27z m821 21 c0 -5 -2
-10 -4 -10 -3 0 -8 5 -11 10 -3 6 -1 10 4 10 6 0 11 -4 11 -10z m-755 -10 c3
-5 1 -10 -4 -10 -6 0 -11 5 -11 10 0 6 2 10 4 10 3 0 8 -4 11 -10z m-293 -22
c-7 -7 -12 -8 -12 -2 0 14 12 26 19 19 2 -3 -1 -11 -7 -17z m-42 8 c0 -3 -4
-8 -10 -11 -5 -3 -10 -1 -10 4 0 6 5 11 10 11 6 0 10 -2 10 -4z m161 -19 c-10
-9 -11 -8 -5 6 3 10 9 15 12 12 3 -3 0 -11 -7 -18z m145 -14 c-10 -10 -19 5
-10 18 6 11 8 11 12 0 2 -7 1 -15 -2 -18z m504 13 c0 -17 -14 -29 -23 -20 -8
8 3 34 14 34 5 0 9 -6 9 -14z m370 -12 c0 -8 -4 -12 -10 -9 -5 3 -10 13 -10
21 0 8 5 12 10 9 6 -3 10 -13 10 -21z m-830 -4 c0 -5 -4 -10 -10 -10 -5 0 -10
5 -10 10 0 6 5 10 10 10 6 0 10 -4 10 -10z m-180 -10 c0 -5 -5 -10 -11 -10 -5
0 -7 5 -4 10 3 6 8 10 11 10 2 0 4 -4 4 -10z m546 -22 c-9 -12 -16 -19 -16
-15 0 11 24 47 28 42 2 -2 -3 -14 -12 -27z m-1298 -6 c2 -7 -3 -12 -12 -12 -9
0 -16 7 -16 16 0 17 22 14 28 -4z m122 -7 c7 -14 17 -25 22 -25 9 0 11 -34 2
-43 -6 -6 -54 73 -54 88 0 14 18 2 30 -20z m1260 -6 c0 -4 -11 -6 -25 -5 -30
1 -31 5 -8 22 17 12 32 4 33 -17z m70 27 c0 -3 -5 -17 -11 -33 -10 -26 -12
-26 -19 -8 -7 20 4 45 21 45 5 0 9 -2 9 -4z m-700 -23 c11 -10 20 -21 20 -26
0 -5 -7 -4 -15 3 -21 18 -61 -16 -44 -37 9 -10 8 -13 -4 -13 -14 0 -27 28 -27
60 0 12 2 13 9 1 7 -11 11 -9 20 8 14 25 15 26 41 4z m-844 -19 c-4 -12 -2
-15 9 -10 9 3 15 0 15 -9 0 -18 -12 -19 -28 -3 -10 10 -15 10 -22 -2 -14 -21
-12 -43 2 -34 8 5 9 2 3 -12 -4 -10 -11 -36 -15 -57 -11 -56 -15 -52 -17 19
-3 53 1 70 19 94 23 32 44 40 34 14z m424 -27 c0 -5 -8 -3 -18 6 -10 10 -24
17 -31 17 -7 0 -9 4 -6 10 7 12 55 -17 55 -33z m179 29 c7 -8 8 -17 3 -20 -6
-3 -12 3 -15 14 -6 24 -4 25 12 6z m-457 -8 c-7 -7 -12 -20 -12 -30 0 -31 -17
-20 -18 12 0 24 3 30 21 30 16 0 18 -3 9 -12z m-56 -14 c-3 -9 -6 -20 -6 -26
0 -6 -6 -6 -15 2 -21 18 -19 35 6 37 15 1 19 -2 15 -13z m750 -32 c-4 -3 -11
-1 -18 6 -8 8 -8 15 3 28 13 16 14 16 17 -5 2 -13 1 -25 -2 -29z m194 33 c0
-8 -4 -15 -10 -15 -5 0 -10 7 -10 15 0 8 5 15 10 15 6 0 10 -7 10 -15z m360
-10 c-7 -9 -15 -13 -17 -11 -7 7 7 26 19 26 6 0 6 -6 -2 -15z m-1070 -5 c0 -5
-2 -10 -4 -10 -3 0 -8 5 -11 10 -3 6 -1 10 4 10 6 0 11 -4 11 -10z m282 -22
c-7 -7 -12 -8 -12 -2 0 14 12 26 19 19 2 -3 -1 -11 -7 -17z m260 -40 c-9 -9
-12 -4 -11 23 0 32 1 33 11 11 8 -17 8 -26 0 -34z m34 17 c1 -14 -1 -25 -5
-25 -4 0 -8 14 -9 32 -3 37 10 31 14 -7z m-634 -7 c-8 -8 -9 -4 -5 13 4 13 8
18 11 10 2 -7 -1 -18 -6 -23z m804 -5 c8 -9 15 -10 19 -3 9 14 27 12 22 -2 -2
-7 -13 -13 -24 -13 -11 -1 -29 -7 -39 -15 -16 -14 -17 -13 -12 8 6 22 -6 31
-17 12 -4 -6 -10 -8 -15 -5 -5 3 -20 0 -32 -6 -22 -12 -22 -11 -8 7 29 37 40
46 40 33 0 -8 3 -9 13 0 8 6 17 8 20 4 4 -3 7 0 8 8 0 11 2 11 6 -1 4 -8 12
-20 19 -27z m-501 -3 c-6 -9 -9 -9 -16 1 -10 17 0 34 13 21 6 -6 7 -16 3 -22z
m47 -29 c1 -23 -4 -47 -10 -53 -18 -18 -27 0 -12 26 7 14 10 32 6 41 -6 16 2
41 10 32 2 -2 5 -23 6 -46z m-318 20 c3 -4 -3 -16 -13 -25 -13 -11 -21 -14
-26 -7 -3 6 -1 11 4 11 6 0 11 7 11 15 0 16 16 20 24 6z m367 -31 c12 0 2 -40
-13 -55 -7 -7 -9 0 -5 22 5 23 2 33 -9 37 -12 5 -13 8 -2 20 11 12 13 11 16
-5 2 -10 8 -19 13 -19z m-560 21 c6 10 9 8 9 -8 0 -16 -4 -21 -15 -17 -8 4
-15 14 -14 23 0 12 2 12 6 2 5 -11 7 -11 14 0z m434 -21 c10 -11 14 -20 9 -20
-5 0 -15 9 -22 20 -7 11 -11 20 -9 20 2 0 12 -9 22 -20z m279 -20 c-6 -5 -24
21 -24 34 0 6 6 1 14 -10 8 -10 12 -21 10 -24z m-356 -2 c-3 -7 -13 -15 -24
-17 -16 -3 -17 -1 -5 13 16 19 34 21 29 4z m482 -30 c-10 -17 -16 -36 -13 -41
3 -6 1 -7 -5 -3 -25 16 -5 75 25 76 9 0 6 -11 -7 -32z m-106 7 c-4 -8 -8 -15
-10 -15 -2 0 -4 7 -4 15 0 8 4 15 10 15 5 0 7 -7 4 -15z m-863 -28 c-10 -9
-11 -8 -5 6 3 10 9 15 12 12 3 -3 0 -11 -7 -18z m-39 -32 c-5 -18 -11 -25 -15
-18 -4 7 -2 21 5 32 16 26 19 22 10 -14z m-109 -75 c-3 -11 -9 -20 -14 -20
-11 0 -11 3 -3 24 9 23 23 20 17 -4z m1 -82 c-1 -18 -4 -42 -5 -53 0 -11 -5
-2 -9 20 -5 24 -4 45 2 53 15 17 16 16 12 -20z m416 -142 c0 -3 -4 -8 -10 -11
-5 -3 -10 -1 -10 4 0 6 5 11 10 11 6 0 10 -2 10 -4z m126 -161 c-4 -24 -16
-30 -16 -7 0 12 4 22 9 22 5 0 8 -7 7 -15z m-696 -35 c0 -11 -4 -20 -9 -20 -5
0 -7 9 -4 20 3 11 7 20 9 20 2 0 4 -9 4 -20z m650 -20 c0 -5 -4 -10 -10 -10
-5 0 -10 5 -10 10 0 6 5 10 10 10 6 0 10 -4 10 -10z m-669 -110 l-9 -45 0 60
c0 33 3 65 7 70 10 17 12 -37 2 -85z m1404 -470 c3 -5 2 -10 -4 -10 -5 0 -13
5 -16 10 -3 6 -2 10 4 10 5 0 13 -4 16 -10z m-375 -200 c0 -5 -2 -10 -4 -10
-3 0 -8 5 -11 10 -3 6 -1 10 4 10 6 0 11 -4 11 -10z m-40 -10 c0 -5 -2 -10 -4
-10 -3 0 -8 5 -11 10 -3 6 -1 10 4 10 6 0 11 -4 11 -10z m90 1 c0 -4 -21 -17
-47 -27 -27 -11 -51 -20 -55 -22 -5 -2 -8 1 -8 7 0 6 18 15 40 21 21 6 42 15
45 20 8 12 25 13 25 1z m156 -76 c10 -38 -1 -54 -57 -79 -27 -13 -44 -26 -37
-29 18 -6 3 -20 -25 -23 -12 -1 -22 -3 -22 -4 0 -8 -192 -3 -213 6 l-27 12 25
1 c14 1 34 12 45 26 50 61 64 75 71 64 5 -8 9 -8 14 0 4 8 19 0 42 -23 38 -38
61 -43 102 -25 23 11 56 62 56 88 0 21 20 11 26 -14z m92 -27 c-3 -7 -17 -13
-33 -13 -16 0 -30 6 -32 13 -3 8 7 12 32 12 25 0 35 -4 33 -12z m33 -62 c11
-40 -11 -89 -50 -112 -17 -10 -31 -22 -31 -26 0 -4 -5 -8 -11 -8 -6 0 -38 -27
-71 -60 -54 -53 -59 -60 -37 -60 13 0 35 12 48 25 12 14 27 22 32 19 5 -3 9 0
9 5 0 6 6 11 13 11 10 0 13 -12 10 -45 l-4 -45 40 0 c23 0 46 7 56 16 8 9 22
13 30 10 17 -6 20 -26 4 -26 -5 0 -8 -4 -5 -9 3 -5 -2 -26 -11 -47 -10 -22
-17 -47 -18 -56 0 -10 -4 -17 -8 -17 -12 0 -36 -33 -37 -49 0 -7 -13 -25 -30
-39 -34 -28 -39 -47 -10 -38 16 5 20 2 20 -14 0 -21 3 -28 33 -87 9 -17 14
-34 10 -38 -4 -3 4 -17 17 -31 20 -21 22 -30 14 -53 -9 -23 -15 -27 -47 -25
-20 1 -36 -1 -35 -5 2 -4 -10 -20 -25 -35 -24 -23 -28 -24 -22 -7 7 23 -5 26
-24 8 -10 -11 -11 -8 -6 13 4 17 1 30 -9 38 -9 8 -16 22 -16 32 0 29 -20 22
-32 -11 -5 -17 -19 -35 -30 -41 -15 -8 -18 -17 -13 -38 3 -16 0 -39 -8 -54
-14 -27 -15 -27 -20 -6 -3 11 -10 18 -16 14 -6 -3 -11 2 -11 13 0 11 -7 22
-15 26 -8 3 -15 10 -15 16 0 5 7 10 15 10 8 0 15 5 15 10 0 14 -27 12 -34 -2
-3 -10 -9 -8 -19 5 -8 9 -19 17 -26 17 -14 0 -41 62 -31 73 4 5 5 18 3 28 -4
16 -11 19 -32 14 -20 -4 -33 0 -50 19 -13 14 -27 23 -32 21 -4 -3 -5 14 -3 37
2 24 1 35 -2 26 -7 -22 -30 -23 -38 -2 -3 8 -10 12 -16 9 -5 -3 -10 1 -10 9 0
10 6 13 15 10 17 -7 21 11 5 21 -6 4 -8 15 -5 26 4 13 2 19 -9 19 -9 0 -16 -4
-16 -10 0 -20 -29 -9 -32 13 -2 14 -9 21 -21 21 -9 -1 -17 2 -17 6 0 5 -13 11
-29 15 -34 7 -86 45 -87 63 -1 6 -2 23 -2 37 -1 14 -6 25 -12 25 -12 0 -70 56
-70 68 0 6 9 12 20 15 18 4 26 29 21 60 -1 4 13 0 31 -10 18 -9 37 -16 41 -15
4 1 16 -2 27 -8 15 -8 20 -6 25 10 9 28 22 25 28 -7 3 -16 16 -34 27 -41 12
-8 20 -9 17 -4 -6 8 76 -16 98 -30 6 -3 42 -9 80 -12 56 -5 80 -2 120 14 41
15 45 19 25 21 -14 1 -32 3 -40 4 -8 1 -26 7 -38 14 -18 10 -22 18 -18 37 5
18 2 24 -10 24 -31 0 -7 25 39 41 26 8 50 19 54 22 3 4 17 7 30 7 13 0 23 4
23 9 0 5 16 15 35 22 23 9 38 22 44 41 6 15 17 28 27 28 10 0 14 -5 10 -16 -3
-8 -2 -12 4 -9 6 3 10 13 10 20 0 8 6 12 14 9 7 -3 16 2 20 11 3 10 12 15 19
12 6 -2 21 -1 32 4 32 13 48 6 56 -25z m59 -256 c0 -5 -4 -10 -10 -10 -5 0
-10 5 -10 10 0 6 5 10 10 10 6 0 10 -4 10 -10z m210 -546 c0 -8 -5 -12 -10 -9
-6 4 -8 11 -5 16 9 14 15 11 15 -7z m-600 -64 c0 -5 -4 -10 -10 -10 -5 0 -10
5 -10 10 0 6 5 10 10 10 6 0 10 -4 10 -10z m900 -30 c0 -5 -7 -10 -15 -10 -8
0 -15 5 -15 10 0 6 7 10 15 10 8 0 15 -4 15 -10z m130 -76 c0 -10 -13 -14 -44
-14 -25 0 -48 -6 -55 -14 -11 -13 -84 -36 -115 -36 -29 0 -16 19 27 41 64 32
187 47 187 23z m186 -19 c-21 -16 -32 -13 -21 4 3 6 14 11 23 11 15 -1 15 -2
-2 -15z m-449 -50 c3 -12 -52 -33 -89 -34 -18 -1 -28 4 -28 14 0 16 42 31 59
21 5 -4 12 -2 15 2 7 11 40 9 43 -3z m383 5 c0 -5 -5 -10 -11 -10 -5 0 -7 5
-4 10 3 6 8 10 11 10 2 0 4 -4 4 -10z m-540 -40 c-8 -5 -28 -9 -45 -9 -29 1
-29 1 -5 9 14 4 34 8 45 9 16 1 17 -1 5 -9z m-531 -60 c0 -9 -4 -8 -9 5 -5 11
-9 27 -9 35 0 9 4 8 9 -5 5 -11 9 -27 9 -35z m641 17 c0 -33 -7 -37 -41 -25
-37 13 -38 35 -1 41 15 2 30 5 35 6 4 0 7 -9 7 -22z m-635 -68 c4 -11 22 -27
41 -36 22 -11 34 -24 34 -37 0 -10 7 -28 17 -38 9 -10 11 -18 5 -18 -5 0 -8
-9 -5 -20 3 -11 9 -20 14 -20 5 0 9 -4 9 -10 0 -5 -9 -10 -20 -10 -11 0 -20 3
-20 8 0 4 -10 12 -22 17 -26 11 -42 41 -56 105 -6 25 -14 53 -17 63 -4 9 -3
17 3 17 6 0 14 -9 17 -21z m502 -5 c-1 -1 -15 -4 -32 -8 l-30 -7 25 20 c17 14
27 16 32 8 4 -6 6 -12 5 -13z m-257 -5 c0 -5 -5 -7 -10 -4 -6 4 -17 1 -25 -5
-12 -10 -15 -9 -15 4 0 10 9 16 25 16 14 0 25 -5 25 -11z m570 -90 c0 8 3 11
6 8 9 -9 -15 -37 -31 -37 -7 0 -16 8 -20 18 -5 14 -4 15 6 5 18 -18 29 -16 23
5 -5 14 -4 15 5 2 9 -12 11 -13 11 -1z m-630 -149 c0 -5 -2 -10 -4 -10 -3 0
-8 5 -11 10 -3 6 -1 10 4 10 6 0 11 -4 11 -10z m1300 -60 c0 -5 -4 -10 -10
-10 -5 0 -10 5 -10 10 0 6 5 10 10 10 6 0 10 -4 10 -10z m-880 -140 c0 -5 -4
-10 -10 -10 -5 0 -10 5 -10 10 0 6 5 10 10 10 6 0 10 -4 10 -10z m680 -20 c0
-11 -4 -20 -10 -20 -5 0 -10 2 -10 4 0 2 -3 11 -6 20 -4 11 -1 16 10 16 9 0
16 -8 16 -20z m-730 -27 c0 -20 -3 -24 -11 -16 -7 7 -9 19 -6 27 10 24 17 19
17 -11z m120 -84 c0 -6 -4 -7 -10 -4 -5 3 -10 11 -10 16 0 6 5 7 10 4 6 -3 10
-11 10 -16z m-863 -635 c-3 -3 -12 -4 -19 -1 -8 3 -5 6 6 6 11 1 17 -2 13 -5z
m-157 -44 c0 -5 -4 -10 -10 -10 -5 0 -10 5 -10 10 0 6 5 10 10 10 6 0 10 -4
10 -10z m855 -128 c-3 -3 -11 0 -18 7 -9 10 -8 11 6 5 10 -3 15 -9 12 -12z"/>
<path d="M2056 2345 c-8 -23 -8 -35 3 -35 13 0 23 32 13 42 -6 6 -12 3 -16 -7z"/>
<path d="M1993 2303 c-7 -2 -13 -9 -13 -15 0 -14 43 -6 48 10 4 12 -12 15 -35
5z"/>
<path d="M1955 2270 c-3 -5 -1 -10 4 -10 6 0 11 5 11 10 0 6 -2 10 -4 10 -3 0
-8 -4 -11 -10z"/>
<path d="M2080 2230 c0 -5 5 -10 10 -10 6 0 10 5 10 10 0 6 -4 10 -10 10 -5 0
-10 -4 -10 -10z"/>
<path d="M1920 1989 c0 -5 5 -7 10 -4 6 3 10 8 10 11 0 2 -4 4 -10 4 -5 0 -10
-5 -10 -11z"/>
<path d="M2235 1920 c-4 -6 3 -10 14 -10 25 0 27 6 6 13 -8 4 -17 2 -20 -3z"/>
<path d="M2221 1814 c0 -11 3 -14 6 -6 3 7 2 16 -1 19 -3 4 -6 -2 -5 -13z"/>
<path d="M2040 4831 c0 -6 5 -13 10 -16 6 -3 10 1 10 9 0 9 -4 16 -10 16 -5 0
-10 -4 -10 -9z"/>
<path d="M2090 4830 c0 -5 5 -10 10 -10 6 0 10 5 10 10 0 6 -4 10 -10 10 -5 0
-10 -4 -10 -10z"/>
<path d="M3085 4550 c3 -5 11 -10 16 -10 6 0 7 5 4 10 -3 6 -11 10 -16 10 -6
0 -7 -4 -4 -10z"/>
<path d="M2420 4439 c0 -11 5 -17 10 -14 6 3 10 13 10 21 0 8 -4 14 -10 14 -5
0 -10 -9 -10 -21z"/>
<path d="M2490 4430 c-1 -3 -3 -18 -5 -34 -2 -16 -9 -32 -16 -36 -8 -6 -8 -9
0 -15 15 -8 43 14 35 27 -4 6 -1 13 5 17 8 5 7 13 -4 27 -8 10 -15 17 -15 14z"/>
<path d="M2556 4404 c-4 -10 -1 -14 6 -12 15 5 23 28 10 28 -5 0 -13 -7 -16
-16z"/>
<path d="M2986 4412 c-7 -12 3 -42 14 -42 16 0 18 15 5 33 -7 10 -16 14 -19 9z"/>
<path d="M2950 4395 c0 -8 5 -15 10 -15 6 0 10 7 10 15 0 8 -4 15 -10 15 -5 0
-10 -7 -10 -15z"/>
<path d="M1092 4280 c-12 -19 -11 -20 8 -8 11 7 20 16 20 20 0 15 -15 8 -28
-12z"/>
<path d="M2475 4259 c-4 -6 -5 -12 -2 -15 2 -3 7 2 10 11 7 17 1 20 -8 4z"/>
<path d="M2716 4245 c4 -8 8 -15 10 -15 2 0 4 7 4 15 0 8 -4 15 -10 15 -5 0
-7 -7 -4 -15z"/>
<path d="M2480 4203 c0 -14 19 -17 44 -7 27 10 18 23 -14 21 -16 -1 -30 -8
-30 -14z"/>
<path d="M1055 4200 c4 -6 11 -8 16 -5 14 9 11 15 -7 15 -8 0 -12 -5 -9 -10z"/>
<path d="M1095 4191 c-3 -5 -1 -12 5 -16 5 -3 10 1 10 9 0 18 -6 21 -15 7z"/>
<path d="M2715 4190 c-3 -5 -1 -10 4 -10 6 0 11 5 11 10 0 6 -2 10 -4 10 -3 0
-8 -4 -11 -10z"/>
<path d="M1106 4133 c-6 -14 -5 -15 5 -6 7 7 10 15 7 18 -3 3 -9 -2 -12 -12z"/>
<path d="M1018 4102 c-18 -17 -31 -33 -28 -35 3 -3 20 8 38 25 19 16 32 32 29
34 -3 3 -20 -8 -39 -24z"/>
<path d="M2414 4114 c-18 -14 -18 -15 4 -4 12 6 22 13 22 15 0 8 -5 6 -26 -11z"/>
<path d="M3396 4108 c26 -31 36 -38 48 -31 5 4 -4 17 -20 30 -37 29 -53 30
-28 1z"/>
<path d="M1052 4075 l-37 -36 37 23 c20 13 39 29 42 36 9 20 -2 14 -42 -23z"/>
<path d="M2360 4090 c-8 -5 -10 -10 -5 -10 6 0 17 5 25 10 8 5 11 10 5 10 -5
0 -17 -5 -25 -10z"/>
<path d="M2275 4080 c-3 -5 -1 -10 4 -10 6 0 11 5 11 10 0 6 -2 10 -4 10 -3 0
-8 -4 -11 -10z"/>
<path d="M1652 4039 c-7 -11 -11 -23 -9 -25 7 -7 29 24 25 36 -2 6 -9 1 -16
-11z"/>
<path d="M1920 4045 c0 -8 2 -15 4 -15 2 0 6 7 10 15 3 8 1 15 -4 15 -6 0 -10
-7 -10 -15z"/>
<path d="M2210 4035 c-13 -14 -21 -25 -17 -25 3 0 17 11 31 25 14 14 22 25 17
25 -4 0 -18 -11 -31 -25z"/>
<path d="M1679 3730 c-1 -5 -2 -15 -3 -20 0 -6 -8 -15 -16 -20 -8 -5 -11 -13
-6 -17 5 -4 11 -2 13 5 3 6 13 12 22 12 14 0 17 6 13 25 -4 24 -21 35 -23 15z"/>
<path d="M817 3690 c-3 -11 -3 -20 -1 -20 2 0 8 9 14 20 6 11 7 20 2 20 -6 0
-12 -9 -15 -20z"/>
<path d="M876 3694 c-4 -9 -4 -19 -1 -22 2 -3 7 3 11 12 4 9 4 19 1 22 -2 3
-7 -3 -11 -12z"/>
<path d="M813 3645 c-14 -15 -17 -35 -7 -35 8 0 33 32 34 43 0 11 -14 8 -27
-8z"/>
<path d="M897 3631 c-9 -16 -17 -40 -16 -53 0 -16 6 -9 20 26 23 56 21 69 -4
27z"/>
<path d="M1775 3640 c3 -5 14 -10 23 -10 15 0 15 2 2 10 -20 13 -33 13 -25 0z"/>
<path d="M813 3570 c-24 -30 -29 -50 -13 -50 9 0 44 70 38 75 -2 1 -13 -10
-25 -25z"/>
<path d="M3554 3511 c3 -69 7 -85 32 -120 16 -22 39 -44 50 -50 25 -11 49 -77
59 -159 3 -30 15 -77 26 -105 11 -28 29 -98 39 -155 10 -57 21 -107 24 -110 3
-3 4 34 3 81 -2 48 -6 90 -10 93 -11 11 -8 36 3 29 6 -3 10 1 10 9 0 9 -5 15
-12 14 -8 -2 -17 26 -26 77 -7 44 -22 118 -32 165 -10 47 -22 110 -25 140 -10
81 -34 152 -50 146 -8 -3 -16 -2 -18 2 -2 4 -2 1 0 -7 2 -7 -1 -19 -7 -26 -8
-10 -8 -15 1 -20 8 -6 8 -10 -2 -15 -10 -7 -10 -14 1 -39 16 -41 7 -50 -16
-16 -14 21 -15 31 -6 46 7 11 8 20 2 24 -5 3 -7 11 -5 18 5 13 -2 26 -27 45
-15 12 -16 7 -14 -67z m93 27 c-3 -8 -6 -5 -6 6 -1 11 2 17 5 13 3 -3 4 -12 1
-19z m-17 -153 c0 -8 -4 -15 -10 -15 -5 0 -10 7 -10 15 0 8 5 15 10 15 6 0 10
-7 10 -15z"/>
<path d="M1910 3230 c0 -5 7 -10 15 -10 8 0 15 5 15 10 0 6 -7 10 -15 10 -8 0
-15 -4 -15 -10z"/>
<path d="M3280 3233 c-13 -3 -30 -12 -36 -21 -8 -11 -24 -16 -52 -14 -27 2
-45 -2 -57 -14 -13 -13 -19 -14 -25 -5 -5 10 -9 10 -15 2 -4 -7 -21 -10 -44
-6 -21 3 -50 1 -64 -4 -19 -8 -30 -7 -39 3 -8 7 -27 15 -44 18 -27 4 -31 1
-41 -30 -7 -24 -7 -30 0 -23 20 20 28 11 13 -11 -9 -12 -16 -29 -16 -38 0 -9
-10 -16 -25 -16 -16 -1 -22 2 -18 10 16 24 13 46 -5 46 -26 0 -34 -11 -21 -27
9 -10 8 -13 -5 -13 -18 0 -36 37 -29 58 3 6 -1 12 -9 12 -15 0 -18 -33 -5 -46
10 -11 9 -24 -3 -24 -8 0 -23 38 -25 62 0 3 -4 10 -9 15 -5 4 -7 3 -3 -2 3 -6
2 -17 -3 -25 -5 -8 -1 -27 11 -49 23 -43 24 -55 4 -71 -8 -7 -12 -16 -9 -21 3
-5 0 -9 -7 -9 -9 0 -9 -4 1 -15 6 -8 9 -19 5 -26 -4 -6 -2 -15 5 -19 8 -5 12
-28 11 -61 0 -30 2 -62 5 -72 6 -18 6 -18 20 0 13 17 15 17 62 -9 39 -21 61
-26 105 -25 41 2 53 -1 50 -10 -3 -7 -9 -13 -14 -13 -5 0 -9 -5 -9 -12 0 -6
11 -1 24 12 35 32 16 48 -52 43 -31 -3 -52 0 -52 6 0 17 40 39 63 33 12 -3 19
-2 16 2 -10 11 41 62 57 58 8 -2 14 2 14 8 0 5 11 10 25 10 14 0 28 7 32 15 5
14 7 14 23 0 14 -13 19 -13 23 -3 3 8 6 6 6 -6 1 -10 10 -34 22 -52 29 -47 80
-56 117 -22 15 14 35 23 45 20 17 -3 17 -5 2 -22 -13 -15 -14 -23 -5 -39 6
-13 7 -21 1 -21 -5 0 -13 9 -16 21 -6 17 -9 18 -22 7 -8 -7 -19 -21 -23 -33
-7 -17 -9 -17 -9 -2 -1 17 -21 25 -21 7 0 -6 -10 -5 -26 2 -20 10 -27 9 -34
-2 -6 -9 -22 -13 -45 -12 -23 3 -35 -1 -35 -9 0 -7 -6 -5 -14 6 -11 15 -15 16
-22 4 -5 -8 -15 -14 -21 -14 -18 0 -17 -18 0 -21 8 -1 24 -5 36 -9 14 -4 21
-2 21 6 0 7 3 10 6 6 3 -3 17 -2 30 3 13 5 26 6 28 1 7 -10 56 -2 74 12 8 6
12 6 12 -2 0 -19 63 0 106 33 28 21 39 36 36 48 -5 19 13 25 23 8 4 -6 10 -8
15 -5 5 3 18 1 28 -4 25 -13 35 -3 17 16 -21 21 -19 32 10 43 14 5 25 14 25
20 0 19 40 50 66 50 14 0 23 4 19 9 -3 5 -1 12 5 16 15 9 12 25 -6 25 -8 0
-12 5 -9 10 3 6 2 10 -3 10 -6 0 -13 12 -17 27 -13 55 -131 163 -177 163 -10
0 -18 7 -18 15 0 15 -12 17 -60 8z m36 -152 c-3 -4 6 -6 21 -3 18 3 24 1 19
-7 -8 -12 16 -41 33 -41 6 0 10 -3 10 -7 -1 -5 0 -10 1 -13 1 -3 3 -13 5 -23
5 -26 25 -47 55 -59 l25 -10 -24 -9 c-33 -13 -55 -4 -47 18 4 10 4 14 0 11
-10 -11 -46 12 -41 25 3 9 -30 13 -122 15 -117 2 -211 17 -211 33 0 4 24 13
53 19 28 7 61 17 72 23 18 9 111 33 143 36 7 0 11 -3 8 -8z m-257 -97 c2 -2
-10 -4 -27 -4 -17 0 -34 4 -37 10 -5 9 53 3 64 -6z"/>
<path d="M2000 3181 c0 -5 8 -28 19 -52 10 -24 21 -53 25 -63 6 -19 7 -19 20
0 8 10 12 22 10 26 -2 4 0 9 5 12 5 4 -7 24 -26 46 -35 39 -53 49 -53 31z"/>
<path d="M1872 3164 c-7 -8 -8 -14 -2 -14 5 0 10 -6 10 -13 0 -13 60 -47 83
-47 6 0 -1 11 -16 25 -15 14 -27 30 -27 35 0 6 -6 10 -14 10 -8 0 -16 4 -18 9
-1 5 -9 3 -16 -5z"/>
<path d="M2688 3055 c2 -14 11 -25 18 -25 17 0 18 22 2 38 -19 19 -26 14 -20
-13z"/>
<path d="M2887 2744 c-7 -8 17 -34 32 -34 6 0 11 5 11 10 0 6 -7 10 -16 10 -8
0 -12 5 -9 10 7 11 -8 14 -18 4z"/>
<path d="M2848 2712 c-33 -4 -33 -5 -12 -38 29 -44 127 -82 197 -76 35 3 54
22 22 22 -8 0 -15 4 -15 9 0 5 -6 9 -12 8 -38 -1 -50 4 -44 18 3 8 1 15 -4 15
-6 0 -10 6 -10 14 0 9 -8 12 -25 8 -14 -2 -35 2 -47 9 -13 8 -35 13 -50 11z"/>
<path d="M2610 2286 c0 -2 7 -7 16 -10 8 -3 12 -2 9 4 -6 10 -25 14 -25 6z"/>
<path d="M3110 2276 c0 -6 33 -42 73 -81 49 -47 86 -96 116 -150 73 -134 98
-188 111 -243 7 -29 15 -50 18 -47 8 7 10 105 3 105 -3 0 -7 23 -8 51 -3 63
-19 116 -44 143 -11 11 -19 24 -19 29 0 17 -98 120 -159 167 -42 32 -91 46
-91 26z"/>
<path d="M2975 2070 c3 -5 8 -10 11 -10 2 0 4 5 4 10 0 6 -5 10 -11 10 -5 0
-7 -4 -4 -10z"/>
<path d="M2840 2021 c0 -5 7 -11 15 -15 9 -3 15 0 15 9 0 8 -7 15 -15 15 -8 0
-15 -4 -15 -9z"/>
<path d="M2906 2022 c-3 -6 -1 -14 5 -17 15 -10 25 3 12 16 -7 7 -13 7 -17 1z"/>
<path d="M2972 2005 c-13 -16 -5 -19 22 -9 9 3 16 10 16 15 0 14 -24 10 -38
-6z"/>
<path d="M2961 1923 c7 -12 15 -20 18 -17 3 2 -3 12 -13 22 -17 16 -18 16 -5
-5z"/>
<path d="M2746 1897 c3 -10 9 -15 12 -12 3 3 0 11 -7 18 -10 9 -11 8 -5 -6z"/>
<path d="M3100 1889 c0 -5 5 -7 10 -4 6 3 10 8 10 11 0 2 -4 4 -10 4 -5 0 -10
-5 -10 -11z"/>
<path d="M3195 1880 c-3 -5 2 -13 12 -17 10 -4 22 -11 26 -17 4 -6 7 0 5 14
-3 26 -31 39 -43 20z"/>
<path d="M3736 1774 c-12 -31 -4 -94 13 -94 3 0 7 25 8 55 3 53 -8 73 -21 39z"/>
<path d="M3345 1690 c3 -5 10 -10 16 -10 5 0 9 5 9 10 0 6 -7 10 -16 10 -8 0
-12 -4 -9 -10z"/>
<path d="M3090 1449 c0 -5 5 -7 10 -4 6 3 10 8 10 11 0 2 -4 4 -10 4 -5 0 -10
-5 -10 -11z"/>
<path d="M3613 1432 c-26 -4 -27 -6 -12 -34 11 -20 11 -20 26 1 18 27 14 37
-14 33z"/>
<path d="M3045 1420 c3 -5 14 -10 23 -10 15 0 15 2 2 10 -20 13 -33 13 -25 0z"/>
<path d="M3591 1356 c-7 -8 -8 -17 -3 -20 6 -3 13 1 16 10 9 23 2 28 -13 10z"/>
<path d="M3537 1303 c-4 -3 -7 -15 -7 -25 0 -28 34 -19 38 10 3 21 -16 31 -31
15z"/>
<path d="M3570 1249 c0 -5 5 -7 10 -4 6 3 10 8 10 11 0 2 -4 4 -10 4 -5 0 -10
-5 -10 -11z"/>
<path d="M3546 1224 c-9 -23 -2 -28 13 -10 7 8 8 17 3 20 -6 3 -13 -1 -16 -10z"/>
<path d="M2520 996 c0 -2 7 -7 16 -10 8 -3 12 -2 9 4 -6 10 -25 14 -25 6z"/>
<path d="M2810 970 c0 -5 5 -10 11 -10 5 0 7 5 4 10 -3 6 -8 10 -11 10 -2 0
-4 -4 -4 -10z"/>
<path d="M3576 649 c-8 -44 -8 -55 3 -43 14 14 24 74 13 74 -5 0 -12 -14 -16
-31z"/>
<path d="M1680 340 c0 -5 7 -10 15 -10 8 0 15 5 15 10 0 6 -7 10 -15 10 -8 0
-15 -4 -15 -10z"/>
<path d="M3111 334 c0 -11 3 -14 6 -6 3 7 2 16 -1 19 -3 4 -6 -2 -5 -13z"/>
<path d="M1775 330 c3 -5 8 -10 11 -10 2 0 4 5 4 10 0 6 -5 10 -11 10 -5 0 -7
-4 -4 -10z"/>
<path d="M3189 322 c-10 -2 -19 -12 -22 -23 -6 -22 2 -24 27 -6 22 16 18 34
-5 29z"/>
<path d="M3120 300 c0 -5 5 -10 10 -10 6 0 10 5 10 10 0 6 -4 10 -10 10 -5 0
-10 -4 -10 -10z"/>
<path d="M1515 279 c-4 -6 -5 -12 -2 -15 2 -3 7 2 10 11 7 17 1 20 -8 4z"/>
<path d="M1725 250 c-3 -5 3 -10 15 -10 12 0 18 5 15 10 -3 6 -10 10 -15 10
-5 0 -12 -4 -15 -10z"/>
<path d="M3165 206 c-11 -8 -14 -15 -8 -19 6 -4 16 0 23 8 17 21 8 28 -15 11z"/>
<path d="M2007 189 c7 -7 15 -10 18 -7 3 3 -2 9 -12 12 -14 6 -15 5 -6 -5z"/>
<path d="M2960 49 c0 -5 5 -7 10 -4 6 3 10 8 10 11 0 2 -4 4 -10 4 -5 0 -10
-5 -10 -11z"/>
<path d="M3105 20 c-14 -16 -15 -20 -4 -20 16 0 39 19 39 32 0 14 -16 9 -35
-12z"/>
</g>
</svg>
